<svg xmlns="http://www.w3.org/2000/svg" direction="ltr" width="155.53083868651518" height="100.21142035232361" viewBox="150.6304113134848 231.98828125 155.53083868651518 100.21142035232361" stroke-linecap="round" stroke-linejoin="round" style="background-color: rgb(249, 250, 251);"><defs/><g transform="matrix(1, 0, 0, 1, 211.0313, 263.9883)" opacity="1"><g transform="scale(1)"><path d="M2.1079,1.9128 T0.2795,3.7127 -6.4171,10.8783 -16.2611,21.9842 -27.2943,35.3978 -33.3519,43.0713 A2.0517,2.0517 0 0 1 -36.5881,40.5487 T-30.57,32.7309 -19.6735,19.0342 -10.066,7.6152 -3.7223,0.0812 -2.1079,-1.9128 A2.8464,2.8464 0 0 1 2.1079,1.9128 ZM-36.464,40.4039 T-30.7343,34.4031 -20.1722,24.2678 -11.6038,17.0266 -3.4945,11.554 0.8789,9.1881 A1.841,1.841 0 0 1 2.6211,12.4319 T-1.4407,14.5963 -9.1811,19.8824 -17.7589,27.2761 -28.067,37.3821 -33.476,43.2161 A2.0517,2.0517 0 0 1 -36.464,40.4039 ZM2.9678,12.1907 T0.325,14.517 -2.9313,16.8082 0.3216,15.3844 10.2554,11.5242 21.3835,8.7811 26.2296,11.6742 24.6347,18.1248 25.2505,22.2032 29.2321,24.6668 30.6567,29.2403 29.2432,33.261 31.805,34.2099 39.6945,32.693 47.2895,30.4115 52.2096,29.0852 56.0773,28.588 60.659,28.4191 63.173,28.3548 A2.4956,2.4956 0 0 1 63.087,33.3452 T60.5264,33.1935 56.3082,32.7708 53.0476,32.6995 48.3257,33.8584 40.3087,36.2709 31.4278,37.884 26.8753,34.6114 26.4716,28.9276 24.1345,26.2108 20.7517,23.1189 21.1093,17.4677 22.6444,12.2019 20.3772,11.3196 11.5894,15.2997 -0.0238,19.3054 -5.6915,17.9317 -2.7185,12.3015 0.5322,9.4293 A1.841,1.841 0 0 1 2.9678,12.1907 Z" stroke-linecap="round" fill="#e16919"/></g></g></svg>